HIERARCHY
ROOT Hips
{
	OFFSET 0.000000 0.000000 0.000000 
	CHANNELS 6 Xposition Yposition Zposition Zrotation Yrotation Xrotation
	JOINT LeftUpLeg
	{
		OFFSET 1.363060 -1.794630 0.839290 
		CHANNELS 3 Zrotation Yrotation Xrotation
		JOINT LeftLeg
		{
			OFFSET 2.448110 -6.726130 0.000000 
			CHANNELS 3 Zrotation Yrotation Xrotation
			JOINT LeftFoot
			{
				OFFSET 2.562200 -7.039590 0.000000 
				CHANNELS 3 Zrotation Yrotation Xrotation
				JOINT LeftToeBase
				{
					OFFSET 0.157640 -0.433110 2.322550 
					CHANNELS 3 Zrotation Yrotation Xrotation
					End Site
					{
						OFFSET 0.000000 0.000000 0.000000 
					}
				}
			}
		}
	}
	JOINT RightUpLeg
	{
		OFFSET -1.305520 -1.794630 0.839290 
		CHANNELS 3 Zrotation Yrotation Xrotation
		JOINT RightLeg
		{
			OFFSET -2.542530 -6.985550 0.000000 
			CHANNELS 3 Zrotation Yrotation Xrotation
			JOINT RightFoot
			{
				OFFSET -2.568260 -7.056230 0.000000 
				CHANNELS 3 Zrotation Yrotation Xrotation
				JOINT RightToeBase
				{
					OFFSET -0.164730 -0.452590 2.363150 
					CHANNELS 3 Zrotation Yrotation Xrotation
					End Site
					{
						OFFSET 0.000000 0.000000 0.000000 
					}
				}
			}
		}
	}
	JOINT Spine
	{
		OFFSET 0.028270 2.035590 -0.193380 
		CHANNELS 3 Zrotation Yrotation Xrotation
		JOINT Spine1
		{
			OFFSET 0.056720 2.048850 -0.042750 
			CHANNELS 3 Zrotation Yrotation Xrotation
			JOINT Neck1
			{
				OFFSET -0.054170 1.746240 0.172020 
				CHANNELS 3 Zrotation Yrotation Xrotation
				JOINT Head
				{
					OFFSET 0.104070 1.761360 -0.123970 
					CHANNELS 3 Zrotation Yrotation Xrotation
					End Site
					{
						OFFSET 0.000000 0.000000 0.000000 
					}
				}
			}
			JOINT LeftArm
			{
				OFFSET 3.362410 1.200890 -0.311210 
				CHANNELS 3 Zrotation Yrotation Xrotation
				JOINT LeftForeArm
				{
					OFFSET 4.983000 -0.000000 -0.000000 
					CHANNELS 3 Zrotation Yrotation Xrotation
					JOINT LeftHand
					{
						OFFSET 3.483560 -0.000000 -0.000000 
						CHANNELS 3 Zrotation Yrotation Xrotation
						JOINT LeftHandIndex1
						{
							OFFSET 0.715260 -0.000000 -0.000000 
							CHANNELS 3 Zrotation Yrotation Xrotation
							End Site
							{
								OFFSET 0.000000 0.000000 0.000000 
							}
						}
					}
				}
			}
			JOINT RightArm
			{
				OFFSET -3.136600 1.374050 -0.404650 
				CHANNELS 3 Zrotation Yrotation Xrotation
				JOINT RightForeArm
				{
					OFFSET -5.241900 -0.000000 -0.000000 
					CHANNELS 3 Zrotation Yrotation Xrotation
					JOINT RightHand
					{
						OFFSET -3.444170 -0.000000 -0.000000 
						CHANNELS 3 Zrotation Yrotation Xrotation
						JOINT RightHandIndex1
						{
							OFFSET -0.622530 -0.000000 -0.000000 
							CHANNELS 3 Zrotation Yrotation Xrotation
							End Site
							{
								OFFSET 0.000000 0.000000 0.000000 
							}
						}
					}
				}
			}
		}
	}
}
MOTION
Frames: 7
Frame Time: 0.041667
13.820464 17.499175 -14.769271 0.788947 -11.336931 7.671723 -17.778287 -20.589667 -6.291991 -2.281070 2.782770 11.488459 -0.728659 8.915118 -9.607082 0.595700 -4.941000 -13.740200 22.186955 26.596372 -11.308998 0.917549 -6.475874 20.591124 1.458206 -21.650026 -12.620005 -0.015700 0.808100 -2.221000 1.594204 0.244114 1.349678 0.459993 0.304150 1.497215 4.533464 3.693753 5.973920 1.425200 1.927200 3.474700 -75.291544 -11.323033 34.989831 19.610438 -21.487382 -4.586090 -0.949716 0.683816 36.593631 -7.125000 0.000000 0.000000 64.592799 12.790131 55.448913 -27.841339 27.436666 -6.065688 -1.381757 -0.364413 -19.518782 7.125000 0.000000 0.000000 
13.814724 17.497793 -14.779795 0.596259 -11.383045 7.804990 -17.464719 -20.486030 -6.819891 -2.217020 3.026240 12.041491 -0.638176 8.406266 -10.121608 0.326300 -3.671600 -10.154500 22.374296 26.541423 -11.427362 0.937406 -6.456826 20.506031 1.406948 -21.412971 -12.806334 -0.008700 0.600700 -1.650800 1.626687 0.175325 1.414926 0.398208 0.276413 1.460992 4.575107 3.847038 5.796365 1.449400 2.003200 3.347500 -76.284840 -12.270652 28.432266 18.430212 -20.152070 -4.224177 -0.954712 0.779684 39.581655 -7.125000 0.000000 0.000000 66.469110 13.753607 50.503976 -26.547451 26.178600 -5.569629 -1.498036 -0.329041 -16.509354 7.125000 0.000000 0.000000 
13.809621 17.495985 -14.788938 0.393616 -11.441056 7.929865 -17.119358 -20.453755 -7.154063 -2.187964 3.158573 12.330824 -0.441670 7.478849 -11.447920 0.002700 0.332700 0.914200 22.589260 26.445649 -11.567333 0.945650 -6.448940 20.450409 1.409388 -21.376494 -12.230976 -0.024200 1.005200 -2.763100 1.611059 0.189053 1.523466 0.158633 0.289448 1.538102 4.481147 3.933137 5.706478 1.359400 2.042800 3.314900 -77.107041 -13.454952 21.713640 17.502070 -19.093802 -3.944006 -0.922498 0.892692 42.461609 -7.125000 0.000000 0.000000 68.404251 14.894502 45.152446 -25.326811 24.980211 -5.101896 -1.571521 -0.296540 -13.781593 7.125000 0.000000 0.000000 
13.806432 17.493647 -14.795210 0.403424 -11.511588 8.059975 -17.136419 -20.483013 -7.492119 -2.148145 3.317004 12.673293 -0.625517 8.368190 -10.260129 0.410000 -4.110400 -11.387600 22.557259 26.386656 -11.768441 0.953844 -6.438020 20.367729 1.447624 -21.519296 -11.402943 -0.074300 1.758400 -4.838400 1.582192 0.214614 1.630679 -0.008336 0.303277 1.661797 4.317301 4.011229 5.618231 1.229700 2.074100 3.279700 -77.931924 -14.691728 14.843997 16.877558 -18.411815 -3.770431 -0.830947 1.026286 44.702888 -7.125000 0.000000 0.000000 70.290512 16.100213 39.415718 -24.242359 23.926497 -4.700918 -1.621169 -0.279750 -10.897220 7.125000 0.000000 0.000000 
13.803987 17.489394 -14.802758 0.407467 -11.575579 8.157138 -17.109716 -20.487866 -7.781892 -2.114411 3.455315 12.980439 -0.662439 8.577178 -10.031586 0.647000 -5.145600 -14.324300 22.509409 26.478211 -11.908929 0.964185 -6.431272 20.299145 1.477562 -21.682013 -10.992173 -0.111900 2.156700 -5.938900 1.604438 0.219195 1.683622 0.010471 0.308414 1.589046 4.323598 4.190906 5.401226 1.245200 2.159700 3.104000 -78.912015 -15.699558 8.254767 16.453518 -18.030671 -3.718397 -0.757035 1.107300 45.840700 -7.125000 0.000000 0.000000 71.968074 17.139334 33.428240 -23.445940 23.240966 -4.519118 -1.735882 -0.280534 -7.991640 7.125000 0.000000 0.000000 
13.799734 17.487693 -14.811688 0.181055 -11.651692 8.320517 -16.796867 -20.405497 -8.071136 -2.091999 3.541444 13.150378 -0.672840 8.602052 -9.958407 0.716200 -5.408200 -15.076600 22.719177 26.590176 -12.072166 0.974161 -6.452760 20.300762 1.450365 -21.596598 -11.166080 -0.090300 1.937900 -5.334200 1.668201 0.234366 1.714398 0.012864 0.322611 1.466440 4.331854 4.374658 5.250650 1.261300 2.248200 2.986800 -79.841386 -16.617174 2.421230 16.193986 -17.882392 -3.732582 -0.810354 1.088983 45.578909 -7.125000 0.000000 0.000000 73.700080 18.124334 27.551005 -22.901396 22.897188 -4.508318 -1.873452 -0.323049 -6.512776 7.125000 0.000000 0.000000 
13.793037 17.489288 -14.821681 -0.042068 -11.746312 8.471006 -16.478984 -20.283645 -8.294322 -2.078931 3.579429 13.205511 -0.677212 8.548816 -9.818348 0.757200 -5.557500 -15.505700 22.940420 26.587071 -12.248536 0.976643 -6.493339 20.360617 1.376024 -21.257546 -11.694521 -0.042800 1.335000 -3.671000 1.698405 0.245392 1.788311 -0.080853 0.332533 1.492948 4.299921 4.502778 5.339118 1.240500 2.310400 3.073000 -80.552242 -17.657394 -2.873542 16.161399 -18.014429 -3.818048 -0.885737 1.040835 44.773470 -7.125000 0.000000 0.000000 75.611693 19.346658 21.704923 -22.384920 22.600899 -4.527739 -1.995157 -0.338596 -6.250494 7.125000 0.000000 0.000000 
